<svg version="1.1" xmlns="http://www.w3.org/2000/svg" width="1163.49pt" height="258pt" viewBox="0 0 1163.49 258"><style type="text/css">.dashed {stroke-dasharray: 5,5} .dotted {stroke-dasharray: 1,5} .overlay {fill: none; pointer-events: all}</style><g><g transform="translate(4, 254)"><polygon stroke="#fffffe" stroke-opacity="0" fill="#ffffff" points="-4,4 -4,-254 1159.49,-254 1159.49,4"></polygon><text font-family="'Times-Roman',serif" font-size="20" fill="#000000" x="577.75" y="-228" text-anchor="middle">Monthly Payment of 2019</text><text font-family="'Times-Roman',serif" font-size="20" fill="#000000" x="577.75" y="-204" text-anchor="middle">Id: 1000, Client: John</text><g class="node"><title>edge</title></g><g class="node"><title>1</title><path stroke="#006699" fill="#cceeff" d="M 32.49000000000001,-133 m -21.5,0 a 21.5,21.5 0 1,0 43,0 a 21.5,21.5 0 1,0 -43,0"></path></g><g class="node"><title>Jan - 3€</title><text x="32.49" y="-13.8" text-anchor="middle" font-family="'Times-Roman',serif" font-size="14" fill="#000000">Jan - 3€</text></g><g class="relation" style="opacity: 1;"><title>1-&gt;Jan - 3€</title><path stroke="#000000" fill="none" d="M 32.49,-111.27 C 32.49,-89.74,32.49,-56.42,32.49,-36.27"></path></g><g class="node"><title>2</title><path stroke="#006699" fill="#cceeff" d="M 121.49,-133 m -25,0 a 25,25 0 1,0 50,0 a 25,25 0 1,0 -50,0"></path></g><g class="node"><title>Feb - 3.5€</title><text x="121.49" y="-13.8" text-anchor="middle" font-family="'Times-Roman',serif" font-size="14" fill="#000000">Feb - 3.5€</text></g><g class="relation" style="opacity: 1;"><title>2-&gt;Feb - 3.5€</title><path stroke="#000000" fill="none" d="M 121.49,-107.76 C 121.49,-86.23,121.49,-55.3,121.49,-36.21"></path></g><g class="node"><title>3</title><path stroke="#006699" fill="#cceeff" d="M 218.49,-133 m -47,0 a 47,47 0 1,0 94,0 a 47,47 0 1,0 -94,0"></path></g><g class="node"><title>Mar - 6.5€</title><text x="218.49" y="-13.8" text-anchor="middle" font-family="'Times-Roman',serif" font-size="14" fill="#000000">Mar - 6.5€</text></g><g class="relation" style="opacity: 1;"><title>3-&gt;Mar - 6.5€</title><path stroke="#000000" fill="none" d="M 218.49,-85.71 C 218.49,-68.16,218.49,-49.24,218.49,-36.05"></path></g><g class="node"><title>4</title><path stroke="#006699" fill="#cceeff" d="M 337.49,-133 m -54,0 a 54,54 0 1,0 108,0 a 54,54 0 1,0 -108,0"></path></g><g class="node"><title>Apr - 7.5€</title><text x="337.49" y="-13.8" text-anchor="middle" font-family="'Times-Roman',serif" font-size="14" fill="#000000">Apr - 7.5€</text></g><g class="relation" style="opacity: 1;"><title>4-&gt;Apr - 7.5€</title><path stroke="#000000" fill="none" d="M 337.49,-78.81 C 337.49,-63.35,337.49,-47.57,337.49,-36.1"></path></g><g class="node"><title>5</title><path stroke="#006699" fill="#cceeff" d="M 431.49,-133 m -21.5,0 a 21.5,21.5 0 1,0 43,0 a 21.5,21.5 0 1,0 -43,0"></path></g><g class="node"><title>May - 3€</title><text x="431.49" y="-13.8" text-anchor="middle" font-family="'Times-Roman',serif" font-size="14" fill="#000000">May - 3€</text></g><g class="relation" style="opacity: 1;"><title>5-&gt;May - 3€</title><path stroke="#000000" fill="none" d="M 431.49,-111.27 C 431.49,-89.74,431.49,-56.42,431.49,-36.27"></path></g><g class="node"><title>6</title><path stroke="#006699" fill="#cceeff" d="M 532.49,-133 m -61,0 a 61,61 0 1,0 122,0 a 61,61 0 1,0 -122,0"></path></g><g class="node"><title>Jun - 8.5€</title><text x="532.49" y="-13.8" text-anchor="middle" font-family="'Times-Roman',serif" font-size="14" fill="#000000">Jun - 8.5€</text></g><g class="relation" style="opacity: 1;"><title>6-&gt;Jun - 8.5€</title><path stroke="#000000" fill="none" d="M 532.49,-71.86 C 532.49,-58.79,532.49,-45.98,532.49,-36.24"></path></g><g class="node"><title>7</title><path stroke="#006699" fill="#cceeff" d="M 626.49,-133 m -14.5,0 a 14.5,14.5 0 1,0 29,0 a 14.5,14.5 0 1,0 -29,0"></path></g><g class="node"><title>Jul - 2€</title><text x="626.49" y="-13.8" text-anchor="middle" font-family="'Times-Roman',serif" font-size="14" fill="#000000">Jul - 2€</text></g><g class="relation" style="opacity: 1;"><title>7-&gt;Jul - 2€</title><path stroke="#000000" fill="none" d="M 626.49,-118.14 C 626.49,-97.52,626.49,-58.76,626.49,-36.3"></path></g><g class="node"><title>8</title><path stroke="#006699" fill="#cceeff" d="M 711.49,-133 m -36,0 a 36,36 0 1,0 72,0 a 36,36 0 1,0 -72,0"></path></g><g class="node"><title>Aug - 5€</title><text x="711.49" y="-13.8" text-anchor="middle" font-family="'Times-Roman',serif" font-size="14" fill="#000000">Aug - 5€</text></g><g class="relation" style="opacity: 1;"><title>8-&gt;Aug - 5€</title><path stroke="#000000" fill="none" d="M 711.49,-96.87 C 711.49,-76.65,711.49,-52.16,711.49,-36.11"></path></g><g class="node"><title>9</title><path stroke="#006699" fill="#cceeff" d="M 803.49,-133 m -18,0 a 18,18 0 1,0 36,0 a 18,18 0 1,0 -36,0"></path></g><g class="node"><title>Sep - 2.5€</title><text x="803.49" y="-13.8" text-anchor="middle" font-family="'Times-Roman',serif" font-size="14" fill="#000000">Sep - 2.5€</text></g><g class="relation" style="opacity: 1;"><title>9-&gt;Sep - 2.5€</title><path stroke="#000000" fill="none" d="M 803.49,-114.84 C 803.49,-93.6,803.49,-57.64,803.49,-36.32"></path></g><g class="node"><title>10</title><path stroke="#006699" fill="#cceeff" d="M 893.49,-133 m -21.5,0 a 21.5,21.5 0 1,0 43,0 a 21.5,21.5 0 1,0 -43,0"></path></g><g class="node"><title>Oct - 3€</title><text x="893.49" y="-13.8" text-anchor="middle" font-family="'Times-Roman',serif" font-size="14" fill="#000000">Oct - 3€</text></g><g class="relation" style="opacity: 1;"><title>10-&gt;Oct - 3€</title><path stroke="#000000" fill="none" d="M 893.49,-111.27 C 893.49,-89.74,893.49,-56.42,893.49,-36.27"></path></g><g class="node"><title>11</title><path stroke="#006699" fill="#cceeff" d="M 979.49,-133 m -36,0 a 36,36 0 1,0 72,0 a 36,36 0 1,0 -72,0"></path></g><g class="node"><title>Nov - 5€</title><text x="979.49" y="-13.8" text-anchor="middle" font-family="'Times-Roman',serif" font-size="14" fill="#000000">Nov - 5€</text></g><g class="relation" style="opacity: 1;"><title>11-&gt;Nov - 5€</title><path stroke="#000000" fill="none" d="M 979.49,-96.87 C 979.49,-76.65,979.49,-52.16,979.49,-36.11"></path></g><g class="node"><title>12</title><path stroke="#006699" fill="#cceeff" d="M 1094.49,-133 m -61,0 a 61,61 0 1,0 122,0 a 61,61 0 1,0 -122,0"></path></g><g class="node"><title>Dec - 8.5€</title><text x="1094.49" y="-13.8" text-anchor="middle" font-family="'Times-Roman',serif" font-size="14" fill="#000000">Dec - 8.5€</text></g><g class="relation" style="opacity: 1;"><title>12-&gt;Dec - 8.5€</title><path stroke="#000000" fill="none" d="M 1094.49,-71.86 C 1094.49,-58.79,1094.49,-45.98,1094.49,-36.24"></path></g></g></g></svg>